<svg width="388" height="225" viewBox="0 0 388 225" fill="none" xmlns="http://www.w3.org/2000/svg">
<path d="M141.4 91H160.2V137.9H141.4V121.7H135.4V106.7H141.4V91ZM90 135.9V91.8H133.4V135.9H90ZM107.8 120.9H115.6V106.9H107.8V120.9ZM160.2 167H141.4V156.5H92V141.5L160.2 141.4V167Z" fill="#FF4E7E"/>
<path d="M75.075 104V161H60.975V156.725H50.475V146.675H60.975V104H75.075ZM24 130.1V104.75H56.475V130.1H24ZM36.525 119.6H43.95V115.175H36.525V119.6ZM47.1 143.675H58.725V133.175H22.5V143.675H33V161H46.35L47.1 143.675Z" fill="#323545"/>
<path d="M221.92 114.888H178.912C175.52 114.888 172.8 113.896 170.752 111.912C168.704 109.864 167.68 107.176 167.68 103.848C167.68 100.52 168.704 97.864 170.752 95.88C172.8 93.832 175.52 92.808 178.912 92.808H221.92C225.312 92.808 228.032 93.832 230.08 95.88C232.128 97.864 233.152 100.52 233.152 103.848C233.152 107.176 232.128 109.864 230.08 111.912C228.032 113.896 225.312 114.888 221.92 114.888ZM187.36 105.48H213.472C213.984 105.48 214.368 105.32 214.624 105C214.944 104.68 215.104 104.296 215.104 103.848C215.104 103.336 214.944 102.952 214.624 102.696C214.368 102.376 213.984 102.216 213.472 102.216H187.36C186.912 102.216 186.528 102.376 186.208 102.696C185.888 102.952 185.728 103.336 185.728 103.848C185.728 104.296 185.888 104.68 186.208 105C186.528 105.32 186.912 105.48 187.36 105.48ZM165.76 128.328V117.864H235.072V128.328H165.76ZM233.152 152.808H185.728V155.496H234.112V165H167.68V143.304H215.104V140.52H167.68V131.112H233.152V152.808Z" fill="#323545"/>
<path d="M347.25 59.1C357.15 59.1 365.15 61.9 371.25 67.5C377.35 73.1 380.4 80.6 380.4 90C380.4 100.5 377.15 108.3 370.65 113.4C364.15 118.4 355.35 120.9 344.25 120.9L343.8 135.15H331.95L331.35 111.45H335.7C345.6 111.45 353.35 109.95 358.95 106.95C364.55 103.95 367.35 98.3 367.35 90C367.35 84 365.55 79.25 361.95 75.75C358.35 72.25 353.5 70.5 347.4 70.5C341.2 70.5 336.3 72.2 332.7 75.6C329.2 78.9 327.45 83.45 327.45 89.25H314.55C314.55 83.25 315.9 78 318.6 73.5C321.3 68.9 325.1 65.35 330 62.85C335 60.35 340.75 59.1 347.25 59.1ZM337.8 165.9C335.2 165.9 333 165 331.2 163.2C329.4 161.4 328.5 159.2 328.5 156.6C328.5 154 329.4 151.8 331.2 150C333 148.2 335.2 147.3 337.8 147.3C340.3 147.3 342.4 148.2 344.1 150C345.9 151.8 346.8 154 346.8 156.6C346.8 159.2 345.9 161.4 344.1 163.2C342.4 165 340.3 165.9 337.8 165.9Z" fill="#27353F"/>
<path d="M307 119.784H314.2V134.184H307V165H288.952V92.04H307V119.784ZM285.112 110.184C285.112 122.024 284.056 131.496 281.944 138.6C279.896 145.64 277.112 150.856 273.592 154.248C270.136 157.64 265.912 160.264 260.92 162.12L257.08 149.64C259.96 147.72 262.168 145.16 263.704 141.96C265.304 138.76 266.424 134.664 267.064 129.672C267.768 124.616 268.12 118.12 268.12 110.184V107.4H263.992V110.184C263.992 120.616 263.096 128.936 261.304 135.144C259.512 141.352 257.016 145.992 253.816 149.064C250.616 152.136 246.584 154.568 241.72 156.36L237.88 142.92C240.696 141 242.808 138.696 244.216 136.008C245.688 133.256 246.68 129.896 247.192 125.928C247.704 121.96 247.96 116.712 247.96 110.184V107.4H240.76V93H285.112V110.184Z" fill="#FF4E7E"/>
<path d="M5.712 36.752C6.672 36.496 7.52 36.32 8.256 36.224C9.024 36.096 9.712 36.016 10.32 35.984C11.12 35.984 11.712 36.096 12.096 36.32C12.48 36.512 12.736 36.768 12.864 37.088C13.024 37.376 13.072 37.712 13.008 38.096C12.976 38.448 12.928 38.768 12.864 39.056C12.512 40.688 12.096 42.416 11.616 44.24C11.168 46.032 10.752 47.712 10.368 49.28C11.424 49.184 12.48 49.12 13.536 49.088C14.624 49.056 15.648 49.056 16.608 49.088C17.152 49.12 17.552 49.28 17.808 49.568C18.064 49.824 18.16 50.112 18.096 50.432C18.064 50.592 17.904 50.8 17.616 51.056C17.328 51.312 16.992 51.456 16.608 51.488C14.848 51.648 12.944 51.84 10.896 52.064C8.88 52.288 6.96 52.544 5.136 52.832C4.496 52.928 3.968 52.832 3.552 52.544C3.168 52.256 2.976 51.904 2.976 51.488C2.976 51.232 3.104 50.96 3.36 50.672C3.648 50.384 4.08 50.176 4.656 50.048C5.04 49.984 5.456 49.92 5.904 49.856C6.352 49.76 6.816 49.68 7.296 49.616C7.488 48.848 7.68 48.016 7.872 47.12C8.064 46.192 8.256 45.264 8.448 44.336C8.672 43.376 8.88 42.432 9.072 41.504C9.264 40.576 9.44 39.712 9.6 38.912C8.928 38.976 8.224 39.104 7.488 39.296C6.752 39.456 5.984 39.616 5.184 39.776C4.384 39.936 3.76 39.744 3.312 39.2C2.864 38.656 2.608 38.016 2.544 37.28C2.48 36.544 2.576 35.76 2.832 34.928C3.088 34.064 3.408 33.264 3.792 32.528C3.856 32.4 3.936 32.24 4.032 32.048C4.128 31.856 4.256 31.68 4.416 31.52C4.128 31.584 3.856 31.632 3.6 31.664C3.344 31.664 3.088 31.68 2.832 31.712C2.288 31.776 1.84 31.616 1.488 31.232C1.168 30.816 1.04 30.384 1.104 29.936C1.136 29.712 1.2 29.52 1.296 29.36C1.36 29.2 1.472 29.056 1.632 28.928C1.792 28.8 2.016 28.704 2.304 28.64C2.528 28.608 3.04 28.544 3.84 28.448C4.64 28.352 5.536 28.272 6.528 28.208C7.552 28.144 8.592 28.128 9.648 28.16C10.736 28.16 11.68 28.256 12.48 28.448C12.736 28.512 13.072 28.704 13.488 29.024C13.904 29.312 14.112 29.648 14.112 30.032C14.112 30.192 14 30.384 13.776 30.608C13.584 30.8 13.312 30.896 12.96 30.896C12.032 30.928 10.992 30.976 9.84 31.04C8.688 31.104 7.536 31.2 6.384 31.328C6.544 31.488 6.656 31.712 6.72 32C6.816 32.288 6.816 32.656 6.72 33.104L5.712 36.752ZM15.84 58.736C15.712 59.472 15.36 60.144 14.784 60.752C14.24 61.328 13.584 61.824 12.816 62.24C12.08 62.656 11.296 62.944 10.464 63.104C9.664 63.296 8.976 63.328 8.4 63.2C7.216 62.944 6.496 62.384 6.24 61.52C5.984 60.624 6.24 59.584 7.008 58.4C7.296 57.952 7.696 57.488 8.208 57.008C8.752 56.528 9.344 56.112 9.984 55.76C10.432 55.504 10.976 55.296 11.616 55.136C12.288 54.944 12.768 54.992 13.056 55.28C13.248 55.504 13.296 55.776 13.2 56.096C14.32 56.16 15.056 56.496 15.408 57.104C15.792 57.68 15.936 58.224 15.84 58.736ZM12.144 57.344C11.504 57.824 10.912 58.336 10.368 58.88C9.824 59.424 9.344 60.064 8.928 60.8C9.536 60.64 10.208 60.416 10.944 60.128C11.68 59.808 12.32 59.424 12.864 58.976C13.248 58.688 13.44 58.4 13.44 58.112C13.408 57.856 13.04 57.552 12.336 57.2C12.304 57.232 12.272 57.264 12.24 57.296C12.208 57.296 12.176 57.312 12.144 57.344ZM48.8505 35.84C48.7865 36.864 48.7385 38 48.7065 39.248C48.6745 40.464 48.6425 41.712 48.6105 42.992C48.6105 44.272 48.6265 45.552 48.6585 46.832C48.6905 48.112 48.7545 49.312 48.8505 50.432C48.8505 50.72 48.7065 50.992 48.4185 51.248C48.1625 51.504 47.9065 51.648 47.6505 51.68C47.0425 51.744 46.6265 51.648 46.4025 51.392C46.1785 51.104 46.0345 50.784 45.9705 50.432C45.6185 47.936 45.4585 45.456 45.4905 42.992C45.5225 40.528 45.8105 38.144 46.3545 35.84C46.5145 35.264 46.6905 34.928 46.8825 34.832C47.1065 34.736 47.3465 34.688 47.6025 34.688C48.0185 34.72 48.3225 34.864 48.5145 35.12C48.7385 35.376 48.8505 35.616 48.8505 35.84ZM24.5145 38.384C24.2905 40.4 24.0985 42.432 23.9385 44.48C23.7785 46.528 23.7785 48.432 23.9385 50.192C25.3145 49.68 26.5945 49.152 27.7785 48.608C28.9945 48.064 30.1945 47.52 31.3785 46.976C32.1145 46.624 32.7865 46.4 33.3945 46.304C34.0345 46.208 34.4185 46.24 34.5465 46.4C34.6425 46.528 34.6585 46.72 34.5945 46.976C34.5625 47.2 34.4665 47.456 34.3065 47.744C34.1785 48 34.0025 48.256 33.7785 48.512C33.5865 48.768 33.3785 48.976 33.1545 49.136C32.8985 49.36 32.4025 49.696 31.6665 50.144C30.9305 50.592 30.0985 51.056 29.1705 51.536C28.2745 51.984 27.3625 52.384 26.4345 52.736C25.5065 53.088 24.7225 53.264 24.0825 53.264C23.2185 53.264 22.4985 53.056 21.9225 52.64C21.3785 52.192 20.9945 51.44 20.7705 50.384C20.5785 49.488 20.4825 48.4 20.4825 47.12C20.5145 45.808 20.5945 44.528 20.7225 43.28C20.8505 42 20.9785 40.864 21.1065 39.872C21.2665 38.848 21.3945 38.16 21.4905 37.808C21.6185 37.36 21.8105 36.992 22.0665 36.704C22.3545 36.416 22.7225 36.352 23.1705 36.512C23.5865 36.64 23.9225 36.88 24.1785 37.232C24.4665 37.552 24.5785 37.936 24.5145 38.384ZM29.9385 42.704C29.6505 42.384 29.5385 42.08 29.6025 41.792C29.6985 41.472 29.8585 41.2 30.0825 40.976C30.4985 40.592 31.0585 40.192 31.7625 39.776C32.4665 39.36 33.2505 38.96 34.1145 38.576C34.9785 38.192 35.8745 37.84 36.8025 37.52C37.7305 37.2 38.6105 36.928 39.4425 36.704C39.4425 36.512 39.4905 36.352 39.5865 36.224C39.6505 36.096 39.7465 35.984 39.8745 35.888C40.0025 35.792 40.1945 35.76 40.4505 35.792C40.9625 35.856 41.4105 36.08 41.7945 36.464C42.1785 36.816 42.3545 37.168 42.3225 37.52C42.2265 38.288 42.1305 39.2 42.0345 40.256C41.9385 41.312 41.8585 42.4 41.7945 43.52C41.7625 44.64 41.7305 45.744 41.6985 46.832C41.6665 47.92 41.6505 48.864 41.6505 49.664C41.7145 50.016 41.6345 50.336 41.4105 50.624C41.1865 50.88 40.9305 51.024 40.6425 51.056C40.1945 51.088 39.8585 50.96 39.6345 50.672C39.4425 50.384 39.3145 50.096 39.2505 49.808C38.8985 48.304 38.7065 46.752 38.6745 45.152C38.6425 43.52 38.7065 41.744 38.8665 39.824C37.8425 40.112 36.8185 40.496 35.7945 40.976C34.7705 41.456 33.7625 41.952 32.7705 42.464C32.6105 42.56 32.3865 42.656 32.0985 42.752C31.8425 42.848 31.5705 42.928 31.2825 42.992C31.0265 43.024 30.7705 43.024 30.5145 42.992C30.2585 42.96 30.0665 42.864 29.9385 42.704ZM129.894 37.76C130.566 37.28 131.43 36.848 132.486 36.464C133.542 36.048 134.55 35.856 135.51 35.888C136.534 35.952 137.334 36.288 137.91 36.896C138.518 37.504 138.646 38.32 138.294 39.344C138.038 40.016 137.654 40.928 137.142 42.08C136.662 43.2 136.294 44.352 136.038 45.536C137.414 44.96 138.518 44.416 139.35 43.904C140.182 43.36 141.014 42.848 141.846 42.368C142.23 42.112 142.614 42.08 142.998 42.272C143.382 42.432 143.606 42.608 143.67 42.8C143.734 42.96 143.686 43.28 143.526 43.76C143.398 44.208 143.11 44.64 142.662 45.056C142.278 45.44 141.75 45.84 141.078 46.256C140.406 46.64 139.702 47.024 138.966 47.408C138.23 47.792 137.494 48.144 136.758 48.464C136.022 48.752 135.366 48.976 134.79 49.136C134.31 49.296 133.83 49.248 133.35 48.992C132.902 48.736 132.598 48.368 132.438 47.888C132.278 47.44 132.294 46.832 132.486 46.064C132.678 45.296 132.918 44.512 133.206 43.712C133.526 42.88 133.846 42.112 134.166 41.408C134.518 40.672 134.774 40.144 134.934 39.824C134.998 39.664 135.03 39.504 135.03 39.344C135.03 39.184 134.902 39.104 134.646 39.104C134.102 39.168 133.478 39.36 132.774 39.68C132.07 39.968 131.366 40.336 130.662 40.784C130.438 40.944 130.23 41.008 130.038 40.976C129.878 40.944 129.718 40.88 129.558 40.784C129.686 41.808 129.814 42.784 129.942 43.712C130.102 44.64 130.294 45.616 130.518 46.64C130.678 47.344 130.678 47.856 130.518 48.176C130.358 48.496 130.07 48.736 129.654 48.896C129.206 49.056 128.822 49.04 128.502 48.848C128.182 48.624 127.974 48.368 127.878 48.08C127.334 46.48 126.87 44.736 126.486 42.848C126.134 40.96 125.878 39.152 125.718 37.424C125.654 36.88 125.686 36.432 125.814 36.08C125.974 35.696 126.182 35.44 126.438 35.312C126.726 35.184 127.014 35.168 127.302 35.264C127.622 35.36 127.91 35.52 128.166 35.744C128.454 35.936 128.694 36.176 128.886 36.464C129.078 36.72 129.174 36.96 129.174 37.184C129.206 37.376 129.222 37.568 129.222 37.76C129.222 37.952 129.238 38.144 129.27 38.336C129.43 38.112 129.638 37.92 129.894 37.76ZM154.038 59.6C154.358 60.144 154.534 60.672 154.566 61.184C154.63 61.696 154.502 62.064 154.182 62.288C154.022 62.384 153.878 62.464 153.75 62.528C153.622 62.624 153.462 62.656 153.27 62.624C153.11 62.592 152.918 62.496 152.694 62.336C152.47 62.176 152.214 61.92 151.926 61.568C151.03 60.448 150.038 59.2 148.95 57.824C147.862 56.448 146.694 55.04 145.446 53.6C144.806 54.592 144.182 55.584 143.574 56.576C142.998 57.536 142.486 58.496 142.038 59.456C141.974 59.84 141.862 60.192 141.702 60.512C141.542 60.832 141.286 61.056 140.934 61.184C140.774 61.248 140.582 61.264 140.358 61.232C140.134 61.168 139.942 61.056 139.782 60.896C139.462 60.48 139.286 60.032 139.254 59.552C139.222 59.072 139.286 58.608 139.446 58.16C139.638 57.488 139.942 56.736 140.358 55.904C140.774 55.04 141.238 54.16 141.75 53.264C142.294 52.368 142.838 51.52 143.382 50.72C143.958 49.888 144.486 49.168 144.966 48.56C145.51 47.92 146.054 47.776 146.598 48.128C146.662 48.192 146.758 48.304 146.886 48.464C147.046 48.592 147.174 48.784 147.27 49.04C147.398 49.264 147.462 49.536 147.462 49.856C147.494 50.176 147.43 50.528 147.27 50.912C147.206 51.04 147.126 51.152 147.03 51.248C146.966 51.312 146.902 51.408 146.838 51.536C149.014 52.368 151.414 55.056 154.038 59.6ZM150.438 44.192C150.47 44.448 150.422 44.672 150.294 44.864C150.198 45.056 150.054 45.232 149.862 45.392C149.702 45.52 149.526 45.632 149.334 45.728C149.142 45.792 148.982 45.808 148.854 45.776C148.566 45.712 148.31 45.584 148.086 45.392C147.894 45.168 147.718 44.928 147.558 44.672C147.43 44.384 147.318 44.096 147.222 43.808C147.158 43.52 147.11 43.264 147.078 43.04C146.95 42.24 146.854 41.344 146.79 40.352C146.726 39.36 146.694 38.336 146.694 37.28C146.694 36.192 146.71 35.088 146.742 33.968C146.806 32.848 146.886 31.76 146.982 30.704C147.11 30.352 147.366 30.096 147.75 29.936C148.166 29.744 148.55 29.712 148.902 29.84C149.222 29.968 149.526 30.176 149.814 30.464C150.102 30.752 150.246 31.04 150.246 31.328C150.214 32.16 150.182 33.072 150.15 34.064C150.118 35.056 150.118 36.112 150.15 37.232C151.302 36.944 152.582 36.72 153.99 36.56C155.398 36.368 156.886 36.384 158.454 36.608C158.838 36.672 159.126 36.8 159.318 36.992C159.542 37.184 159.67 37.376 159.702 37.568C159.734 37.728 159.59 38.032 159.27 38.48C158.95 38.896 158.518 39.136 157.974 39.2C157.27 39.296 156.63 39.392 156.054 39.488C155.51 39.552 154.95 39.632 154.374 39.728C153.798 39.792 153.174 39.872 152.502 39.968C151.862 40.064 151.094 40.176 150.198 40.304C150.23 40.944 150.262 41.6 150.294 42.272C150.326 42.912 150.374 43.552 150.438 44.192ZM186.96 48.032C187.056 47.712 187.168 47.376 187.296 47.024C187.424 46.672 187.568 46.368 187.728 46.112C187.888 45.824 188.08 45.6 188.304 45.44C188.56 45.28 188.848 45.216 189.168 45.248C189.616 45.312 189.952 45.584 190.176 46.064C190.4 46.544 190.48 47.008 190.416 47.456C190.064 49.44 189.792 51.472 189.6 53.552C189.408 55.6 189.024 57.536 188.448 59.36C188.096 60.352 187.6 61.072 186.96 61.52C186.352 61.936 185.728 62.112 185.088 62.048C184.544 61.984 184.048 61.792 183.6 61.472C183.152 61.152 182.784 60.672 182.496 60.032C182.176 59.264 181.984 58.448 181.92 57.584C181.888 56.72 182 55.888 182.256 55.088C182.544 54.288 182.976 53.584 183.552 52.976C184.16 52.336 184.944 51.888 185.904 51.632L186.384 51.488C186.448 50.784 186.528 50.128 186.624 49.52C186.752 48.88 186.864 48.384 186.96 48.032ZM170.688 35.264C169.44 36.992 168.24 38.752 167.088 40.544C165.936 42.336 164.96 44.192 164.16 46.112C163.904 46.688 163.536 47.168 163.056 47.552C162.608 47.904 162.224 48 161.904 47.84C161.584 47.712 161.376 47.504 161.28 47.216C161.184 46.928 161.136 46.624 161.136 46.304C161.168 45.952 161.232 45.616 161.328 45.296C161.424 44.944 161.52 44.64 161.616 44.384C162.256 42.88 163.008 41.36 163.872 39.824C164.768 38.256 165.76 36.752 166.848 35.312C166.144 35.472 165.456 35.696 164.784 35.984C164.144 36.24 163.504 36.544 162.864 36.896C162.544 37.024 162.192 37.072 161.808 37.04C161.424 36.976 161.152 36.768 160.992 36.416C160.544 35.584 160.88 34.784 162 34.016C162.448 33.728 162.976 33.456 163.584 33.2C164.192 32.944 164.8 32.736 165.408 32.576C166.048 32.384 166.656 32.24 167.232 32.144C167.84 32.048 168.336 31.984 168.72 31.952C169.936 31.952 170.704 32.272 171.024 32.912C171.344 33.52 171.232 34.304 170.688 35.264ZM181.152 44.912C180.896 46 180.688 47.2 180.528 48.512C180.368 49.792 180.24 51.12 180.144 52.496C180.08 53.84 180.064 55.168 180.096 56.48C180.128 57.76 180.24 58.944 180.432 60.032C180.432 60.256 180.352 60.416 180.192 60.512C180.032 60.576 179.872 60.64 179.712 60.704C179.488 60.768 179.248 60.784 178.992 60.752C178.704 60.752 178.416 60.56 178.128 60.176C177.872 59.76 177.664 59.232 177.504 58.592C176.928 56.192 176.672 53.76 176.736 51.296C176.8 48.832 177.28 46.544 178.176 44.432C178.336 43.952 178.624 43.568 179.04 43.28C179.488 42.96 179.936 43.008 180.384 43.424C180.608 43.648 180.784 43.92 180.912 44.24C181.072 44.528 181.152 44.752 181.152 44.912ZM188.112 31.232C187.76 33.056 187.552 34.976 187.488 36.992C187.424 39.008 187.392 40.928 187.392 42.752C187.392 43.168 187.248 43.472 186.96 43.664C186.704 43.856 186.384 43.872 186 43.712C185.552 43.488 185.168 43.168 184.848 42.752C184.56 42.336 184.384 41.856 184.32 41.312C184.128 39.2 184.096 37.216 184.224 35.36C184.384 33.472 184.72 31.856 185.232 30.512C185.392 30.16 185.648 29.92 186 29.792C186.352 29.632 186.704 29.616 187.056 29.744C187.376 29.84 187.632 30 187.824 30.224C188.016 30.416 188.112 30.752 188.112 31.232ZM173.712 49.952C173.808 50.432 173.664 50.832 173.28 51.152C172.928 51.44 172.56 51.552 172.176 51.488C171.664 51.424 171.264 51.184 170.976 50.768C170.72 50.32 170.56 49.872 170.496 49.424C170.432 49.04 170.336 48.544 170.208 47.936C170.08 47.328 169.92 46.656 169.728 45.92C169.568 45.184 169.392 44.432 169.2 43.664C169.04 42.864 168.864 42.096 168.672 41.36C168.512 40.848 168.48 40.432 168.576 40.112C168.704 39.76 168.816 39.536 168.912 39.44C169.104 39.216 169.312 39.104 169.536 39.104C169.76 39.072 169.968 39.104 170.16 39.2C170.384 39.264 170.576 39.392 170.736 39.584C170.928 39.744 171.072 39.904 171.168 40.064C171.456 40.576 171.712 41.232 171.936 42.032C172.192 42.8 172.416 43.632 172.608 44.528C172.832 45.424 173.024 46.352 173.184 47.312C173.376 48.24 173.552 49.12 173.712 49.952ZM183.984 57.152C183.952 57.344 183.952 57.568 183.984 57.824C184.016 58.048 184.048 58.272 184.08 58.496C184.144 58.72 184.208 58.912 184.272 59.072C184.336 59.232 184.416 59.312 184.512 59.312C184.896 59.312 185.2 58.992 185.424 58.352C185.68 57.712 185.84 57.104 185.904 56.528C185.904 56.304 185.904 56.064 185.904 55.808C185.936 55.552 185.968 55.28 186 54.992C185.2 55.152 184.672 55.456 184.416 55.904C184.192 56.32 184.048 56.736 183.984 57.152ZM215.061 25.856C215.157 26.272 215.237 26.848 215.301 27.584C215.365 28.32 215.413 29.12 215.445 29.984C215.477 30.816 215.461 31.664 215.397 32.528C215.365 33.36 215.301 34.096 215.205 34.736C215.941 34.8 216.405 35.152 216.597 35.792C216.789 36.4 216.725 37.008 216.405 37.616C216.085 38.224 215.733 38.832 215.349 39.44C214.997 40.048 214.645 40.688 214.293 41.36C215.797 41.168 217.429 41.088 219.189 41.12C220.981 41.152 222.597 41.344 224.037 41.696C224.709 41.888 225.157 42.16 225.381 42.512C225.605 42.832 225.701 43.12 225.669 43.376C225.605 43.696 225.381 43.872 224.997 43.904C224.613 43.936 224.229 43.936 223.845 43.904C222.309 43.84 220.597 43.856 218.709 43.952C216.821 44.048 214.789 44.256 212.613 44.576C212.165 45.6 211.717 46.736 211.269 47.984C211.173 48.24 210.965 48.464 210.645 48.656C210.325 48.848 210.005 48.912 209.685 48.848C209.205 48.784 208.917 48.576 208.821 48.224C208.725 47.872 208.693 47.472 208.725 47.024C208.757 46.32 208.917 45.584 209.205 44.816C209.525 44.016 209.893 43.216 210.309 42.416C210.725 41.584 211.173 40.768 211.653 39.968C212.133 39.168 212.565 38.384 212.949 37.616C212.629 37.616 212.245 37.68 211.797 37.808C211.349 37.904 210.901 38.048 210.453 38.24C210.005 38.4 209.573 38.576 209.157 38.768C208.741 38.928 208.405 39.072 208.149 39.2C207.829 39.36 207.429 39.44 206.949 39.44C206.469 39.44 206.117 39.232 205.893 38.816C205.637 38.368 205.605 37.984 205.797 37.664C206.021 37.312 206.357 36.992 206.805 36.704C206.901 36.64 207.141 36.512 207.525 36.32C207.909 36.128 208.373 35.936 208.917 35.744C209.493 35.52 210.133 35.312 210.837 35.12C211.541 34.928 212.277 34.8 213.045 34.736C212.917 34.064 212.805 33.344 212.709 32.576C212.613 31.776 212.533 30.976 212.469 30.176C212.405 29.344 212.357 28.544 212.325 27.776C212.325 26.976 212.341 26.256 212.373 25.616C212.405 25.136 212.549 24.832 212.805 24.704C213.061 24.544 213.317 24.48 213.573 24.512C213.861 24.544 214.149 24.656 214.437 24.848C214.757 25.04 214.965 25.376 215.061 25.856ZM227.397 49.424C227.461 49.776 227.413 50.096 227.253 50.384C227.093 50.672 226.885 50.928 226.629 51.152C226.373 51.376 226.085 51.568 225.765 51.728C225.477 51.888 225.221 52 224.997 52.064C223.781 52.48 222.421 52.848 220.917 53.168C221.013 53.968 221.077 54.944 221.109 56.096C221.141 57.216 221.141 58.352 221.109 59.504C221.077 60.656 220.997 61.712 220.869 62.672C220.773 63.664 220.661 64.416 220.533 64.928C220.181 66.112 219.669 66.656 218.997 66.56C218.485 66.496 218.085 66.24 217.797 65.792C217.541 65.344 217.461 64.784 217.557 64.112C217.621 63.568 217.685 62.848 217.749 61.952C217.845 61.056 217.909 60.128 217.941 59.168C218.005 58.176 218.053 57.2 218.085 56.24C218.117 55.248 218.133 54.4 218.133 53.696C217.173 53.856 216.213 54 215.253 54.128C214.325 54.256 213.413 54.352 212.517 54.416C211.973 54.448 211.541 54.432 211.221 54.368C210.901 54.272 210.645 54.16 210.453 54.032C210.293 53.872 210.181 53.712 210.117 53.552C210.053 53.36 210.005 53.216 209.973 53.12C209.877 52.64 209.957 52.272 210.213 52.016C210.469 51.728 210.821 51.552 211.269 51.488C213.893 51.232 216.357 50.912 218.661 50.528C220.997 50.112 223.253 49.648 225.429 49.136C225.941 49.008 226.373 48.96 226.725 48.992C227.109 49.024 227.333 49.168 227.397 49.424ZM233.756 49.52C233.532 49.808 233.26 50.08 232.94 50.336C232.62 50.592 232.236 50.64 231.788 50.48C231.628 50.416 231.468 50.288 231.308 50.096C231.18 49.904 231.068 49.68 230.972 49.424C230.908 49.168 230.876 48.912 230.876 48.656C230.876 48.4 230.94 48.176 231.068 47.984C231.932 46.512 232.716 45.168 233.42 43.952C234.124 42.704 234.604 41.52 234.86 40.4C234.284 40.4 233.644 40.528 232.94 40.784C232.236 41.008 231.548 41.392 230.876 41.936C230.492 42.224 230.172 42.352 229.916 42.32C229.66 42.288 229.452 42.192 229.292 42.032C229.132 41.84 229.02 41.616 228.956 41.36C228.924 41.072 228.94 40.848 229.004 40.688C229.068 40.432 229.228 40.128 229.484 39.776C229.772 39.424 230.188 39.088 230.732 38.768C231.276 38.416 231.948 38.112 232.748 37.856C233.548 37.568 234.508 37.392 235.628 37.328C235.308 36.912 235.004 36.432 234.716 35.888C234.428 35.312 234.172 34.752 233.948 34.208C233.724 33.632 233.548 33.104 233.42 32.624C233.324 32.112 233.292 31.68 233.324 31.328C233.324 30.88 233.516 30.608 233.9 30.512C234.252 30.416 234.636 30.496 235.052 30.752C235.468 31.008 235.788 31.472 236.012 32.144C236.14 32.496 236.284 32.912 236.444 33.392C236.636 33.872 236.812 34.368 236.972 34.88C237.164 35.392 237.324 35.904 237.452 36.416C237.58 36.896 237.644 37.328 237.644 37.712C238.092 38.032 238.364 38.48 238.46 39.056C238.588 39.632 238.556 40.176 238.364 40.688C238.076 41.52 237.756 42.352 237.404 43.184C237.052 43.984 236.652 44.8 236.204 45.632C236.812 45.6 237.244 45.76 237.5 46.112C237.788 46.432 238.044 46.912 238.268 47.552C238.556 48.352 238.78 49.264 238.94 50.288C239.132 51.312 239.276 52.304 239.372 53.264C239.5 54.224 239.596 55.088 239.66 55.856C239.724 56.624 239.756 57.152 239.756 57.44C239.756 57.6 239.708 57.824 239.612 58.112C239.516 58.4 239.196 58.512 238.652 58.448C238.332 58.384 237.98 58.224 237.596 57.968C237.212 57.712 237.004 57.312 236.972 56.768C236.94 56.512 236.876 55.984 236.78 55.184C236.716 54.352 236.604 53.456 236.444 52.496C236.316 51.504 236.124 50.56 235.868 49.664C235.644 48.736 235.372 48.048 235.052 47.6C234.7 48.208 234.268 48.848 233.756 49.52ZM250.94 35.792C251.068 34.8 251.276 34.144 251.564 33.824C251.852 33.472 252.172 33.312 252.524 33.344C252.78 33.376 253.1 33.552 253.484 33.872C253.9 34.16 254.108 34.496 254.108 34.88C254.076 35.648 254.012 36.512 253.916 37.472C253.82 38.432 253.74 39.44 253.676 40.496C253.612 41.552 253.564 42.64 253.531 43.76C253.531 44.848 253.595 45.92 253.724 46.976C253.788 47.584 253.692 47.952 253.436 48.08C253.18 48.208 252.86 48.256 252.476 48.224C252.22 48.192 251.964 48.096 251.708 47.936C251.452 47.776 251.276 47.488 251.18 47.072C250.956 46.272 250.796 45.376 250.7 44.384C250.636 43.36 250.604 42.336 250.604 41.312C249.452 42.24 248.076 42.992 246.476 43.568C244.908 44.112 243.356 44.512 241.82 44.768C241.212 44.864 240.732 44.912 240.38 44.912C240.06 44.88 239.868 44.704 239.804 44.384C239.676 43.872 239.724 43.456 239.948 43.136C240.172 42.816 240.46 42.576 240.812 42.416C241.164 42.224 241.516 42.096 241.868 42.032C242.22 41.936 242.46 41.856 242.588 41.792C244.444 41.312 246.044 40.8 247.388 40.256C248.732 39.68 249.836 39.024 250.7 38.288C250.732 37.84 250.764 37.408 250.796 36.992C250.828 36.544 250.876 36.144 250.94 35.792ZM249.5 49.088C249.276 49.824 249.068 50.688 248.876 51.68C248.684 52.672 248.54 53.52 248.444 54.224C248.412 54.48 248.54 54.64 248.828 54.704C249.436 54.736 250.14 54.704 250.94 54.608C251.772 54.48 252.604 54.336 253.436 54.176C254.3 54.016 255.132 53.84 255.932 53.648C256.732 53.456 257.436 53.296 258.044 53.168C258.876 52.944 259.34 53.024 259.436 53.408C259.468 53.536 259.388 53.728 259.196 53.984C259.036 54.208 258.828 54.448 258.572 54.704C258.284 54.96 257.964 55.216 257.612 55.472C257.292 55.696 256.956 55.888 256.604 56.048C255.26 56.592 253.9 57.008 252.524 57.296C251.148 57.584 249.788 57.808 248.444 57.968C248.028 58 247.628 57.984 247.244 57.92C246.86 57.824 246.508 57.664 246.188 57.44C245.9 57.216 245.66 56.944 245.468 56.624C245.308 56.272 245.244 55.872 245.276 55.424C245.308 54.88 245.372 54.272 245.468 53.6C245.596 52.928 245.74 52.272 245.9 51.632C246.092 50.96 246.284 50.32 246.476 49.712C246.668 49.072 246.86 48.528 247.052 48.08C247.436 47.536 247.98 47.36 248.684 47.552C249.036 47.68 249.276 47.888 249.404 48.176C249.532 48.432 249.564 48.736 249.5 49.088Z" fill="black"/>
<path d="M80.3723 29.072C80.2123 29.968 79.9883 30.848 79.7003 31.712C79.4123 32.576 79.0923 33.456 78.7403 34.352C79.4443 35.344 80.2123 36.272 81.0443 37.136C81.8763 37.968 82.7083 38.672 83.5403 39.248C84.6923 37.616 85.6363 35.984 86.3723 34.352C87.1083 32.72 87.6043 31.2 87.8603 29.792C87.9243 29.376 87.9243 29.088 87.8603 28.928C87.7963 28.768 87.5403 28.688 87.0923 28.688H82.5323C82.0523 28.688 81.8123 28.416 81.8123 27.872V25.232C81.8123 24.752 82.0683 24.512 82.5803 24.512H89.3962C90.6443 24.512 91.5883 24.752 92.2283 25.232C92.9003 25.68 93.2363 26.304 93.2363 27.104C93.2363 27.392 93.2203 27.744 93.1883 28.16C93.1563 28.544 93.1083 28.912 93.0443 29.264C92.6603 31.44 91.9243 33.712 90.8363 36.08C91.2523 36.656 91.7163 37.248 92.2283 37.856C92.7403 38.432 93.2523 38.992 93.7643 39.536C94.3083 40.08 94.8363 40.576 95.3483 41.024C95.8923 41.472 96.3723 41.84 96.7883 42.128C97.3643 42.48 97.4763 42.896 97.1243 43.376L95.4443 45.68C95.3483 45.808 95.1563 45.904 94.8683 45.968C94.6123 46.032 94.3403 45.952 94.0523 45.728C93.6683 45.472 93.2363 45.152 92.7563 44.768C92.2763 44.352 91.7803 43.92 91.2683 43.472C90.7883 42.992 90.2923 42.496 89.7803 41.984C89.2683 41.472 88.8043 40.96 88.3883 40.448C87.3003 42.112 86.0683 43.696 84.6923 45.2C83.3163 46.672 81.8123 48 80.1803 49.184C79.9243 49.344 79.6683 49.456 79.4123 49.52C79.1563 49.584 78.9323 49.504 78.7403 49.28L76.8683 47.216C76.6123 46.96 76.5323 46.72 76.6283 46.496C76.7243 46.272 76.8683 46.08 77.0603 45.92C78.4363 44.896 79.6683 43.792 80.7563 42.608C79.9883 42.064 79.2363 41.44 78.5003 40.736C77.7963 40.032 77.1243 39.28 76.4843 38.48C75.5883 39.856 74.5643 41.184 73.4123 42.464C72.2603 43.712 70.9803 44.864 69.5723 45.92C69.3483 46.112 69.1403 46.24 68.9483 46.304C68.7563 46.368 68.5483 46.288 68.3242 46.064L66.3083 44C66.1163 43.808 66.0203 43.616 66.0203 43.424C66.0523 43.2 66.1643 43.008 66.3563 42.848C67.4443 42.08 68.4843 41.136 69.4763 40.016C70.5003 38.864 71.4123 37.68 72.2122 36.464C73.0443 35.248 73.7163 34.064 74.2283 32.912C74.7723 31.76 75.1083 30.752 75.2363 29.888C75.3323 29.408 75.3643 29.104 75.3323 28.976C75.3003 28.816 75.0123 28.736 74.4683 28.736H69.5723C69.3483 28.736 69.1723 28.656 69.0443 28.496C68.9483 28.336 68.9003 28.144 68.9003 27.92V25.232C68.9003 24.752 69.1403 24.512 69.6203 24.512H76.5323C77.8123 24.512 78.8043 24.752 79.5083 25.232C80.2123 25.68 80.5643 26.32 80.5643 27.152C80.5643 27.536 80.5483 27.872 80.5163 28.16C80.4843 28.416 80.4363 28.72 80.3723 29.072ZM106.34 65.744C106.34 65.936 106.26 66.08 106.1 66.176C105.972 66.272 105.828 66.32 105.668 66.32H80.1323C78.6603 66.32 77.6683 66.064 77.1562 65.552C76.6763 65.04 76.4363 64.16 76.4363 62.912V53.36C76.4363 53.2 76.5003 53.056 76.6283 52.928C76.7883 52.768 76.9483 52.688 77.1083 52.688H81.2363C81.4283 52.688 81.5883 52.768 81.7163 52.928C81.8763 53.056 81.9563 53.2 81.9563 53.36V60.944C81.9563 61.264 82.0203 61.472 82.1483 61.568C82.2763 61.664 82.5163 61.712 82.8683 61.712H105.668C105.828 61.712 105.972 61.776 106.1 61.904C106.26 62.032 106.34 62.176 106.34 62.336V65.744ZM105.044 53.936C105.044 54.352 104.82 54.56 104.372 54.56H100.388C99.9723 54.56 99.7643 54.352 99.7643 53.936V22.208C99.7643 21.792 99.9723 21.584 100.388 21.584H104.372C104.82 21.584 105.044 21.792 105.044 22.208V53.936Z" fill="#FB6565"/>
</svg>
